<svg xmlns="http://www.w3.org/2000/svg" width="768" height="1664" viewBox="0 0 768 1664" fill="none">
  <rect width="768" height="1664" fill="#F4EFE4"/>
  <rect x="274" y="24" width="220" height="64" rx="32" fill="#050505"/>
  <text x="84" y="95" fill="#202728" font-family="Arial, Helvetica, sans-serif" font-size="28" font-weight="700">2:17</text>
  <circle cx="598" cy="56" r="6" fill="#C9C5BE"/><circle cx="614" cy="56" r="6" fill="#C9C5BE"/><circle cx="630" cy="56" r="6" fill="#C9C5BE"/>
  <path d="M676 48c16 0 29 13 29 29s-13 29-29 29-29-13-29-29 13-29 29-29Z" stroke="#202728" stroke-width="6" opacity="0.12"/>
  <text x="32" y="160" fill="#7B8580" font-family="Arial, Helvetica, sans-serif" font-size="28" font-weight="600">Assalamu alaikum</text>
  <text x="32" y="203" fill="#202728" font-family="Arial, Helvetica, sans-serif" font-size="38" font-weight="800">28 Dhul Hijjah</text>
  <text x="32" y="236" fill="#A4ACA7" font-family="Arial, Helvetica, sans-serif" font-size="28">Sunday, 14 June 2026</text>
  <circle cx="699" cy="187" r="38" fill="#FFFFFF"/>
  <circle cx="699" cy="179" r="9" stroke="#7B8580" stroke-width="3" fill="none"/>
  <path d="M686 202c6-8 21-8 27 0" stroke="#7B8580" stroke-width="3" stroke-linecap="round"/>

  <defs>
    <linearGradient id="hero" x1="32" y1="274" x2="736" y2="588" gradientUnits="userSpaceOnUse">
      <stop stop-color="#177B67"/>
      <stop offset="1" stop-color="#0D5548"/>
    </linearGradient>
    <radialGradient id="glow" cx="0" cy="0" r="1" gradientUnits="userSpaceOnUse" gradientTransform="translate(593 387) rotate(90) scale(154 156)">
      <stop stop-color="#89B4A8" stop-opacity="0.34"/>
      <stop offset="1" stop-color="#89B4A8" stop-opacity="0"/>
    </radialGradient>
  </defs>
  <rect x="31" y="274" width="706" height="314" rx="46" fill="url(#hero)"/>
  <rect x="31" y="274" width="706" height="314" rx="46" fill="url(#glow)"/>
  <text x="66" y="330" fill="#C4E0D8" font-family="Arial, Helvetica, sans-serif" font-size="24" font-weight="800" letter-spacing="1.5">NEXT PRAYER</text>
  <text x="627" y="330" fill="#E4EFEA" font-family="Arial, Helvetica, sans-serif" font-size="26" font-weight="700">0/5 today</text>
  <text x="66" y="397" fill="#FFFFFF" font-family="Arial, Helvetica, sans-serif" font-size="46" font-weight="800">Fajr • 5:59 AM</text>
  <text x="66" y="448" fill="#E4EFEA" font-family="Arial, Helvetica, sans-serif" font-size="26">Begins in 3h 41m — a moment to breathe</text>
  <rect x="66" y="481" width="119" height="9" rx="4.5" fill="#6DA596"/>
  <rect x="195" y="481" width="119" height="9" rx="4.5" fill="#6DA596"/>
  <rect x="324" y="481" width="119" height="9" rx="4.5" fill="#6DA596"/>
  <rect x="453" y="481" width="119" height="9" rx="4.5" fill="#6DA596"/>
  <rect x="582" y="481" width="119" height="9" rx="4.5" fill="#6DA596"/>

  <text x="39" y="657" fill="#202728" font-family="Arial, Helvetica, sans-serif" font-size="30" font-weight="800">Today's prayers</text>
  <text x="362" y="657" fill="#7B8580" font-family="Arial, Helvetica, sans-serif" font-size="26">A new day — one prayer at a time.</text>

  <g>
    <rect x="31" y="688" width="706" height="117" rx="34" fill="#FFFFFF"/>
    <rect x="60" y="713" width="66" height="66" rx="18" fill="#F8F5EF" stroke="#E6E0D7" stroke-width="2"/>
    <circle cx="93" cy="746" r="11" stroke="#AAB3AE" stroke-width="3" fill="none"/>
    <path d="M93 726v8M93 758v8M73 746h8M105 746h8M79 732l5 5M102 755l5 5M79 760l5-5M102 737l5-5" stroke="#AAB3AE" stroke-width="3" stroke-linecap="round"/>
    <text x="154" y="742" fill="#7B8580" font-family="Arial, Helvetica, sans-serif" font-size="31" font-weight="700">Fajr</text>
    <text x="154" y="773" fill="#8D9691" font-family="Arial, Helvetica, sans-serif" font-size="25">5:59 AM</text>
    <circle cx="685" cy="747" r="24" stroke="#D0D6D1" stroke-width="4" fill="none"/>
  </g>
  <g>
    <rect x="31" y="824" width="706" height="117" rx="34" fill="#FFFFFF"/>
    <rect x="60" y="849" width="66" height="66" rx="18" fill="#F8F5EF" stroke="#E6E0D7" stroke-width="2"/>
    <circle cx="93" cy="882" r="11" stroke="#AAB3AE" stroke-width="3" fill="none"/>
    <path d="M93 862v8M93 894v8M73 882h8M105 882h8M79 868l5 5M102 891l5 5M79 896l5-5M102 873l5-5" stroke="#AAB3AE" stroke-width="3" stroke-linecap="round"/>
    <text x="154" y="878" fill="#7B8580" font-family="Arial, Helvetica, sans-serif" font-size="31" font-weight="700">Dhuhr</text>
    <text x="154" y="909" fill="#8D9691" font-family="Arial, Helvetica, sans-serif" font-size="25">12:20 PM</text>
    <circle cx="685" cy="883" r="24" stroke="#D0D6D1" stroke-width="4" fill="none"/>
  </g>
  <g>
    <rect x="31" y="960" width="706" height="117" rx="34" fill="#FFFFFF"/>
    <rect x="60" y="985" width="66" height="66" rx="18" fill="#F8F5EF" stroke="#E6E0D7" stroke-width="2"/>
    <circle cx="93" cy="1018" r="11" stroke="#AAB3AE" stroke-width="3" fill="none"/>
    <circle cx="93" cy="1018" r="2.5" fill="#AAB3AE"/>
    <circle cx="93" cy="995" r="1.6" fill="#C5CBC7"/><circle cx="93" cy="1041" r="1.6" fill="#C5CBC7"/><circle cx="70" cy="1018" r="1.6" fill="#C5CBC7"/><circle cx="116" cy="1018" r="1.6" fill="#C5CBC7"/><circle cx="77" cy="1002" r="1.6" fill="#C5CBC7"/><circle cx="109" cy="1002" r="1.6" fill="#C5CBC7"/><circle cx="77" cy="1034" r="1.6" fill="#C5CBC7"/><circle cx="109" cy="1034" r="1.6" fill="#C5CBC7"/>
    <text x="154" y="1014" fill="#7B8580" font-family="Arial, Helvetica, sans-serif" font-size="31" font-weight="700">Asr</text>
    <text x="154" y="1045" fill="#8D9691" font-family="Arial, Helvetica, sans-serif" font-size="25">2:50 PM</text>
    <circle cx="685" cy="1019" r="24" stroke="#D0D6D1" stroke-width="4" fill="none"/>
  </g>
  <g>
    <rect x="31" y="1096" width="706" height="117" rx="34" fill="#FFFFFF"/>
    <rect x="60" y="1121" width="66" height="66" rx="18" fill="#F8F5EF" stroke="#E6E0D7" stroke-width="2"/>
    <path d="M77 1160h32M84 1152h18M93 1140v14" stroke="#AAB3AE" stroke-width="3" stroke-linecap="round"/>
    <path d="M93 1136c6 0 11 5 11 11" stroke="#AAB3AE" stroke-width="3" fill="none" stroke-linecap="round"/>
    <path d="M104 1147l6-5" stroke="#AAB3AE" stroke-width="3" stroke-linecap="round"/>
    <text x="154" y="1150" fill="#7B8580" font-family="Arial, Helvetica, sans-serif" font-size="31" font-weight="700">Maghrib</text>
    <text x="154" y="1181" fill="#8D9691" font-family="Arial, Helvetica, sans-serif" font-size="25">5:07 PM</text>
    <circle cx="685" cy="1155" r="24" stroke="#D0D6D1" stroke-width="4" fill="none"/>
  </g>
  <g>
    <rect x="31" y="1232" width="706" height="117" rx="34" fill="#FFFFFF"/>
    <rect x="60" y="1257" width="66" height="66" rx="18" fill="#F8F5EF" stroke="#E6E0D7" stroke-width="2"/>
    <path d="M97 1274c-8 4-13 12-13 21 0 14 11 25 25 25 7 0 13-3 18-7-3 1-6 1-9 1-14 0-25-11-25-25 0-6 2-11 4-15Z" fill="none" stroke="#AAB3AE" stroke-width="3"/>
    <path d="M108 1286l2 6 6 2-6 2-2 6-2-6-6-2 6-2 2-6ZM120 1276l1 4 4 1-4 1-1 4-1-4-4-1 4-1 1-4Z" fill="#AAB3AE"/>
    <text x="154" y="1286" fill="#7B8580" font-family="Arial, Helvetica, sans-serif" font-size="31" font-weight="700">Isha</text>
    <text x="154" y="1317" fill="#8D9691" font-family="Arial, Helvetica, sans-serif" font-size="25">6:36 PM</text>
    <circle cx="685" cy="1291" r="24" stroke="#D0D6D1" stroke-width="4" fill="none"/>
  </g>

  <text x="161" y="1411" fill="#A4ACA7" font-family="Arial, Helvetica, sans-serif" font-size="24">Times downloaded for Melbourne, Australia.</text>

  <rect x="145" y="1523" width="479" height="108" rx="54" fill="#FEFBF4"/>
  <rect x="151" y="1529" width="165" height="96" rx="48" fill="#E3DED3"/>
  <path d="M210 1573l22-19 22 19v28h-44v-28Z" fill="none" stroke="#0F6A55" stroke-width="4" stroke-linejoin="round"/>
  <path d="M219 1569l13-12 13 12" stroke="#0F6A55" stroke-width="4" stroke-linecap="round"/>
  <rect x="226" y="1582" width="11" height="13" fill="#0F6A55" rx="2"/>
  <text x="208" y="1610" fill="#0F6A55" font-family="Arial, Helvetica, sans-serif" font-size="18" font-weight="700">Home</text>
  <rect x="360" y="1558" width="12" height="26" rx="3" fill="#161310"/><rect x="378" y="1552" width="12" height="32" rx="3" fill="#161310"/><rect x="396" y="1546" width="12" height="38" rx="3" fill="#161310"/>
  <text x="344" y="1610" fill="#161310" font-family="Arial, Helvetica, sans-serif" font-size="18">Analytics</text>
  <circle cx="532" cy="1565" r="16" stroke="#161310" stroke-width="6" fill="none"/>
  <circle cx="532" cy="1565" r="4" fill="#161310"/>
  <path d="M532 1539v10M532 1581v10M506 1565h10M548 1565h10M515 1548l7 7M542 1575l7 7M515 1582l7-7M542 1555l7-7" stroke="#161310" stroke-width="4" stroke-linecap="round"/>
  <text x="497" y="1610" fill="#161310" font-family="Arial, Helvetica, sans-serif" font-size="18">Settings</text>
</svg>
