<svg xmlns="http://www.w3.org/2000/svg" width="768" height="1664" viewBox="0 0 768 1664" fill="none">
  <defs>
    <filter id="cardShadow" x="0" y="0" width="768" height="1664" filterUnits="userSpaceOnUse" color-interpolation-filters="sRGB">
      <feDropShadow dx="0" dy="16" stdDeviation="24" flood-color="#0F172A" flood-opacity="0.08"/>
    </filter>
  </defs>

  <rect width="768" height="1664" fill="#F4F5F7"/>
  <text x="109" y="67" fill="#000000" font-family="Helvetica, Arial, sans-serif" font-size="28" font-weight="700">11:55</text>
  <rect x="273" y="24" width="220" height="64" rx="32" fill="#000000"/>
  <circle cx="549" cy="56" r="5" fill="#C7CBD1"/><circle cx="565" cy="56" r="5" fill="#C7CBD1"/><circle cx="581" cy="56" r="5" fill="#C7CBD1"/><circle cx="597" cy="56" r="5" fill="#C7CBD1"/>
  <path d="M624 45h29c10 0 18 8 18 18v14c0 10-8 18-18 18h-29c-10 0-18-8-18-18V63c0-10 8-18 18-18Z" stroke="#000000" stroke-width="4"/>
  <rect x="647" y="52" width="18" height="36" rx="9" fill="#000000"/>
  <path d="M602 53c7 0 13 6 13 13" stroke="#000000" stroke-width="4" stroke-linecap="round"/><path d="M598 61c10 0 18 8 18 18" stroke="#000000" stroke-width="4" stroke-linecap="round"/>

  <text x="32" y="160" fill="#667381" font-family="Helvetica, Arial, sans-serif" font-size="28" font-weight="600">Your journey</text>
  <text x="32" y="203" fill="#13161A" font-family="Helvetica, Arial, sans-serif" font-size="38" font-weight="800">Tracking since Jun 14</text>
  <text x="32" y="240" fill="#9AA4B2" font-family="Helvetica, Arial, sans-serif" font-size="28">today</text>

  <g filter="url(#cardShadow)">
    <rect x="32" y="282" width="343" height="114" rx="32" fill="#FFFFFF"/>
    <rect x="393" y="282" width="343" height="114" rx="32" fill="#FFFFFF"/>
    <rect x="32" y="422" width="343" height="114" rx="32" fill="#FFFFFF"/>
    <rect x="393" y="422" width="343" height="114" rx="32" fill="#FFFFFF"/>
  </g>

  <path d="M65 332c0-14 11-25 25-25 12 0 21 8 24 18 3 8 2 16-3 22-4 7-11 11-18 13-11 3-23 0-31-8-7-7-11-18-11-20Z" fill="#FF8A24"/>
  <path d="M76 337c0-8 4-16 10-20-1 3-1 6-1 9 0 10 8 18 18 18 2 0 3 0 5-1-4 9-13 14-22 14-5 0-10-2-14-6-4-4-6-9-6-14Z" fill="#FFF3E8"/>
  <text x="122" y="324" fill="#667381" font-family="Helvetica, Arial, sans-serif" font-size="22" font-weight="600">Current Streak</text>
  <text x="122" y="365" fill="#13161A" font-family="Helvetica, Arial, sans-serif" font-size="30" font-weight="800">0</text>
  <text x="152" y="365" fill="#9AA4B2" font-family="Helvetica, Arial, sans-serif" font-size="20">days</text>

  <path d="M438 320l11 23 25 2-19 15 6 24-23-12-22 12 5-24-18-15 24-2 11-23Z" fill="#E4B521"/>
  <text x="481" y="324" fill="#667381" font-family="Helvetica, Arial, sans-serif" font-size="22" font-weight="600">Longest Streak</text>
  <text x="481" y="365" fill="#13161A" font-family="Helvetica, Arial, sans-serif" font-size="30" font-weight="800">0</text>
  <text x="511" y="365" fill="#9AA4B2" font-family="Helvetica, Arial, sans-serif" font-size="20">days</text>

  <circle cx="80" cy="478" r="18" fill="#24A35F"/>
  <path d="M72 478l6 6 10-14" stroke="#FFFFFF" stroke-width="4" stroke-linecap="round" stroke-linejoin="round"/>
  <text x="122" y="461" fill="#667381" font-family="Helvetica, Arial, sans-serif" font-size="22" font-weight="600">Completion</text>
  <text x="122" y="502" fill="#13161A" font-family="Helvetica, Arial, sans-serif" font-size="30" font-weight="800">20</text>
  <text x="171" y="502" fill="#9AA4B2" font-family="Helvetica, Arial, sans-serif" font-size="20">%</text>

  <circle cx="438" cy="478" r="19" fill="#18856F"/>
  <path d="M438 466v12h-10" stroke="#FFFFFF" stroke-width="4" stroke-linecap="round" stroke-linejoin="round"/>
  <text x="481" y="461" fill="#667381" font-family="Helvetica, Arial, sans-serif" font-size="22" font-weight="600">On-Time</text>
  <text x="481" y="502" fill="#13161A" font-family="Helvetica, Arial, sans-serif" font-size="30" font-weight="800">100</text>
  <text x="549" y="502" fill="#9AA4B2" font-family="Helvetica, Arial, sans-serif" font-size="20">%</text>

  <text x="32" y="615" fill="#13161A" font-family="Helvetica, Arial, sans-serif" font-size="30" font-weight="800">Consistency by prayer</text>

  <g filter="url(#cardShadow)">
    <rect x="32" y="647" width="704" height="137" rx="30" fill="#FFFFFF"/>
    <rect x="32" y="804" width="704" height="137" rx="30" fill="#FFFFFF"/>
    <rect x="32" y="961" width="704" height="137" rx="30" fill="#FFFFFF"/>
    <rect x="32" y="1118" width="704" height="137" rx="30" fill="#FFFFFF"/>
    <rect x="32" y="1275" width="704" height="137" rx="30" fill="#FFFFFF"/>
  </g>

  <g font-family="Helvetica, Arial, sans-serif">
    <text x="56" y="690" fill="#15181C" font-size="28" font-weight="700">Fajr</text>
    <text x="626" y="690" fill="#667381" font-size="24">1 logged</text>
    <rect x="56" y="713" width="656" height="10" rx="5" fill="#E8ECF1"/>
    <rect x="56" y="713" width="656" height="10" rx="5" fill="#24A35F"/>
    <text x="56" y="754" fill="#9AA4B2" font-size="22">100% on-time</text>

    <text x="56" y="847" fill="#15181C" font-size="28" font-weight="700">Dhuhr</text>
    <text x="626" y="847" fill="#667381" font-size="24">0 logged</text>
    <rect x="56" y="870" width="656" height="10" rx="5" fill="#E8ECF1"/>
    <text x="56" y="911" fill="#9AA4B2" font-size="22">0% on-time</text>

    <text x="56" y="1004" fill="#15181C" font-size="28" font-weight="700">Asr</text>
    <text x="626" y="1004" fill="#667381" font-size="24">0 logged</text>
    <rect x="56" y="1027" width="656" height="10" rx="5" fill="#E8ECF1"/>
    <text x="56" y="1068" fill="#9AA4B2" font-size="22">0% on-time</text>

    <text x="56" y="1161" fill="#15181C" font-size="28" font-weight="700">Maghrib</text>
    <text x="626" y="1161" fill="#667381" font-size="24">0 logged</text>
    <rect x="56" y="1184" width="656" height="10" rx="5" fill="#E8ECF1"/>
    <text x="56" y="1225" fill="#9AA4B2" font-size="22">0% on-time</text>

    <text x="56" y="1318" fill="#15181C" font-size="28" font-weight="700">Isha</text>
    <text x="626" y="1318" fill="#667381" font-size="24">0 logged</text>
    <rect x="56" y="1341" width="656" height="10" rx="5" fill="#E8ECF1"/>
    <text x="56" y="1382" fill="#9AA4B2" font-size="22">0% on-time</text>
  </g>

  <text x="32" y="1497" fill="#15181C" font-family="Helvetica, Arial, sans-serif" font-size="30" font-weight="800">Breakdown</text>

  <g filter="url(#cardShadow)">
    <rect x="145" y="1523" width="479" height="108" rx="54" fill="#FFFFFF"/>
    <rect x="302" y="1529" width="165" height="96" rx="48" fill="#DFE3E9"/>
  </g>
  <path d="M209 1573l22-19 22 19v28h-44v-28Z" fill="none" stroke="#17191D" stroke-width="4" stroke-linejoin="round"/>
  <path d="M218 1569l13-12 13 12" stroke="#17191D" stroke-width="4" stroke-linecap="round"/>
  <rect x="225" y="1582" width="11" height="13" rx="2" fill="#17191D"/>
  <text x="206" y="1610" fill="#17191D" font-family="Helvetica, Arial, sans-serif" font-size="18">Home</text>
  <rect x="360" y="1558" width="12" height="26" rx="3" fill="#0E7E69"/><rect x="378" y="1552" width="12" height="32" rx="3" fill="#0E7E69"/><rect x="396" y="1546" width="12" height="38" rx="3" fill="#0E7E69"/>
  <text x="341" y="1610" fill="#0E7E69" font-family="Helvetica, Arial, sans-serif" font-size="18" font-weight="700">Analytics</text>
  <circle cx="532" cy="1565" r="16" stroke="#17191D" stroke-width="6" fill="none"/>
  <circle cx="532" cy="1565" r="4" fill="#17191D"/>
  <path d="M532 1539v10M532 1581v10M506 1565h10M548 1565h10M515 1548l7 7M542 1575l7 7M515 1582l7-7M542 1555l7-7" stroke="#17191D" stroke-width="4" stroke-linecap="round"/>
  <text x="497" y="1610" fill="#17191D" font-family="Helvetica, Arial, sans-serif" font-size="18">Settings</text>
</svg>
